<?xml version="1.0" encoding="utf-8"?>
<!-- Generator: Adobe Illustrator 27.5.0, SVG Export Plug-In . SVG Version: 6.00 Build 0)  -->
<svg version="1.1" id="Layer_1" xmlns="http://www.w3.org/2000/svg" xmlns:xlink="http://www.w3.org/1999/xlink" x="0px" y="0px"
	 viewBox="0 0 4000 4000" style="enable-background:new 0 0 4000 4000;" xml:space="preserve">
<rect x="0" y="0" style="fill-rule:evenodd;clip-rule:evenodd;fill:#FFFFFF;" width="4000" height="4000"/>
<g>
	<g>
		<defs>
			<path id="SVGID_1_" d="M2126.725,1356.343c0,0,2.82-229.048,243.538-244.373c-166.769,0.73-331.583,2.9-500.447,2.9v241.473
				v213.9h-476.324V1114.87l-258.455,222.135v911.569h258.455v-435.31h476.324v435.31h256.909V1356.343z"/>
		</defs>
		<clipPath id="SVGID_00000127037092364609236820000008863359166869068697_">
			<use xlink:href="#SVGID_1_"  style="overflow:visible;"/>
		</clipPath>
		
			<linearGradient id="SVGID_00000078014707173101841890000004723816391791135625_" gradientUnits="userSpaceOnUse" x1="1429.1992" y1="2330.6038" x2="2052.0872" y2="1078.2197">
			<stop  offset="0" style="stop-color:#004790"/>
			<stop  offset="1" style="stop-color:#37DBD0"/>
		</linearGradient>
		
			<rect x="1135.036" y="1111.97" style="clip-path:url(#SVGID_00000127037092364609236820000008863359166869068697_);fill:url(#SVGID_00000078014707173101841890000004723816391791135625_);" width="1235.227" height="1136.604"/>
	</g>
	<g>
		<defs>
			<path id="SVGID_00000018228809218387874970000010530146436784924566_" d="M2370.263,1111.97
				c-240.718,15.325-243.538,244.373-243.538,244.373h391.767c66.243,0,125.241,26.779,148.684,92.052
				c12.782,35.549,12.26,77.869-1.462,113.062c-24.567,63.017-82.785,87.517-147.222,87.517h-262.402v238.388h135.73
				l314.911,361.214l187.975-161.557l-210.177-233.159c163.629-50.187,250.31-180.085,250.31-355.831
				c0-58.905-12.419-117.375-37.914-170.566c-71.122-148.395-219.259-215.276-378.358-215.676
				C2468.853,1111.656,2419.472,1111.748,2370.263,1111.97"/>
		</defs>
		<clipPath id="SVGID_00000015341607336517428650000004470625229897261725_">
			<use xlink:href="#SVGID_00000018228809218387874970000010530146436784924566_"  style="overflow:visible;"/>
		</clipPath>
		
			<linearGradient id="SVGID_00000008863018512130678720000014066141747703943088_" gradientUnits="userSpaceOnUse" x1="2099.6128" y1="1304.0387" x2="3162.8433" y2="2231.4165">
			<stop  offset="0" style="stop-color:#003780"/>
			<stop  offset="1" style="stop-color:#E734ED"/>
		</linearGradient>
		
			<rect x="2126.725" y="1111.656" style="clip-path:url(#SVGID_00000015341607336517428650000004470625229897261725_);fill:url(#SVGID_00000008863018512130678720000014066141747703943088_);" width="808.113" height="1136.918"/>
	</g>
	<defs>
		<filter id="Adobe_OpacityMaskFilter" filterUnits="userSpaceOnUse" x="1256.528" y="1114.514" width="740.94" height="569.676">
			<feColorMatrix  type="matrix" values="1 0 0 0 0  0 1 0 0 0  0 0 1 0 0  0 0 0 1 0"/>
		</filter>
	</defs>
	
		<mask maskUnits="userSpaceOnUse" x="1256.528" y="1114.514" width="740.94" height="569.676" id="SVGID_00000041260765332213754130000013178924217658622638_">
		<g style="filter:url(#Adobe_OpacityMaskFilter);">
			
				<linearGradient id="SVGID_00000029027387436842514950000011670425564465653897_" gradientUnits="userSpaceOnUse" x1="677.963" y1="1184.0834" x2="652.038" y2="2083.1487" gradientTransform="matrix(1 0 0 1 964.0381 -305.0283)">
				<stop  offset="0" style="stop-color:#FFFFFF"/>
				<stop  offset="1" style="stop-color:#000000"/>
			</linearGradient>
			
				<rect x="1256.528" y="1114.514" style="fill:url(#SVGID_00000029027387436842514950000011670425564465653897_);" width="740.94" height="569.676"/>
		</g>
	</mask>
	
		<path style="mask:url(#SVGID_00000041260765332213754130000013178924217658622638_);fill-rule:evenodd;clip-rule:evenodd;fill:#47EBE0;" d="
		M1997.468,1684.189v-569.676c-42.356,0.215-84.874,0.356-127.652,0.356v241.473v213.9h-476.324V1114.87l-136.963,117.713v451.606
		H1997.468z"/>
	<defs>
		
			<filter id="Adobe_OpacityMaskFilter_00000142134825353397471130000009178198393159439237_" filterUnits="userSpaceOnUse" x="2157.923" y="1111.726" width="776.915" height="1041.251">
			<feColorMatrix  type="matrix" values="1 0 0 0 0  0 1 0 0 0  0 0 1 0 0  0 0 0 1 0"/>
		</filter>
	</defs>
	
		<mask maskUnits="userSpaceOnUse" x="2157.923" y="1111.726" width="776.915" height="1041.251" id="SVGID_00000120522137700742930660000007378725869862529931_">
		<g style="filter:url(#Adobe_OpacityMaskFilter_00000142134825353397471130000009178198393159439237_);">
			
				<linearGradient id="SVGID_00000072273106934168400850000016195402956730138039_" gradientUnits="userSpaceOnUse" x1="2174.9431" y1="2680.8301" x2="1032.8666" y2="1411.3297" gradientTransform="matrix(1 0 0 1 1107.2881 -230.5283)">
				<stop  offset="0" style="stop-color:#FFFFFF"/>
				<stop  offset="1" style="stop-color:#000000"/>
			</linearGradient>
			
				<rect x="2157.923" y="1111.724" style="fill:url(#SVGID_00000072273106934168400850000016195402956730138039_);" width="776.915" height="1041.254"/>
		</g>
	</mask>
	
		<path style="mask:url(#SVGID_00000120522137700742930660000007378725869862529931_);fill-rule:evenodd;clip-rule:evenodd;fill:#FF8CC8;" d="
		M2157.923,1240.491c0,0,292.955-40.895,491.272,19.824c342.361,104.82,151.897,568.158-186.869,513.541l355.628,379.121
		l76.751-65.96l-210.177-233.159c163.629-50.187,250.31-180.085,250.31-355.831c0-58.905-12.419-117.375-37.914-170.566
		c-71.122-148.395-219.259-215.276-378.358-215.676c-49.713-0.129-99.094-0.037-148.303,0.185
		C2249.508,1119.657,2188.617,1181.131,2157.923,1240.491"/>
	<defs>
		
			<filter id="Adobe_OpacityMaskFilter_00000070822821138457090180000006321774803361425569_" filterUnits="userSpaceOnUse" x="2126.725" y="1111.97" width="243.538" height="244.373">
			<feColorMatrix  type="matrix" values="1 0 0 0 0  0 1 0 0 0  0 0 1 0 0  0 0 0 1 0"/>
		</filter>
	</defs>
	
		<mask maskUnits="userSpaceOnUse" x="2126.725" y="1111.97" width="243.538" height="244.373" id="SVGID_00000088850344137586190160000009415857664834762628_">
		<g style="filter:url(#Adobe_OpacityMaskFilter_00000070822821138457090180000006321774803361425569_);">
			
				<linearGradient id="SVGID_00000103246084747467628850000011916095484993946553_" gradientUnits="userSpaceOnUse" x1="1066.571" y1="1898.5564" x2="1201.0392" y2="1379.4364" gradientTransform="matrix(1 0 0 1 1102.3301 -357.1299)">
				<stop  offset="0" style="stop-color:#FFFFFF"/>
				<stop  offset="1" style="stop-color:#000000"/>
			</linearGradient>
			
				<rect x="2126.725" y="1111.97" style="fill:url(#SVGID_00000103246084747467628850000011916095484993946553_);" width="243.538" height="244.373"/>
		</g>
	</mask>
	
		<path style="mask:url(#SVGID_00000088850344137586190160000009415857664834762628_);fill-rule:evenodd;clip-rule:evenodd;fill:#002223;" d="
		M2281,1229.578c5.119-70.809,89.263-117.608,89.263-117.608c-120.755,7.688-181.646,69.161-212.34,128.521
		c-30.498,58.968-31.198,115.852-31.198,115.852h233.38C2297.051,1309.733,2278.334,1266.405,2281,1229.578"/>
	<defs>
		
			<filter id="Adobe_OpacityMaskFilter_00000134954678904985548900000011728882500231956414_" filterUnits="userSpaceOnUse" x="1135.036" y="1111.97" width="1235.227" height="572.22">
			<feColorMatrix  type="matrix" values="1 0 0 0 0  0 1 0 0 0  0 0 1 0 0  0 0 0 1 0"/>
		</filter>
	</defs>
	
		<mask maskUnits="userSpaceOnUse" x="1135.036" y="1111.97" width="1235.227" height="572.22" id="SVGID_00000034083595959993835360000000539187821010198169_">
		<g style="filter:url(#Adobe_OpacityMaskFilter_00000134954678904985548900000011728882500231956414_);">
			
				<linearGradient id="SVGID_00000124882341423725186460000017738162142119457446_" gradientUnits="userSpaceOnUse" x1="1385.069" y1="825.7896" x2="504.8767" y2="2163.7585" gradientTransform="matrix(1 0 0 1 944.7305 -305.0283)">
				<stop  offset="0" style="stop-color:#FFFFFF"/>
				<stop  offset="1" style="stop-color:#000000"/>
			</linearGradient>
			
				<rect x="1135.036" y="1111.97" style="fill:url(#SVGID_00000124882341423725186460000017738162142119457446_);" width="1235.227" height="572.22"/>
		</g>
	</mask>
	
		<path style="mask:url(#SVGID_00000034083595959993835360000000539187821010198169_);fill-rule:evenodd;clip-rule:evenodd;fill:#51F5EA;" d="
		M1997.468,1519.78c77.313-42.972,128.557-96.636,129.257-163.438c0,0,0.7-56.884,31.198-115.852
		c30.694-59.36,91.585-120.834,212.34-128.521c-124.522,0.547-247.95,1.893-372.795,2.544c-42.356,0.215-84.874,0.356-127.652,0.356
		v241.473v213.9h-476.324V1114.87l-136.963,117.713l-121.492,104.422l121.492,347.185
		C1256.528,1684.189,1755.086,1654.521,1997.468,1519.78"/>
	<defs>
		
			<filter id="Adobe_OpacityMaskFilter_00000065057509457044417330000007973454450486881976_" filterUnits="userSpaceOnUse" x="2462.326" y="1680.472" width="433.663" height="568.102">
			<feColorMatrix  type="matrix" values="1 0 0 0 0  0 1 0 0 0  0 0 1 0 0  0 0 0 1 0"/>
		</filter>
	</defs>
	
		<mask maskUnits="userSpaceOnUse" x="2462.326" y="1680.472" width="433.663" height="568.102" id="SVGID_00000046337016228634249070000012375279588333055388_">
		<g style="filter:url(#Adobe_OpacityMaskFilter_00000065057509457044417330000007973454450486881976_);">
			
				<linearGradient id="SVGID_00000181048972087212573000000003128274056081830075_" gradientUnits="userSpaceOnUse" x1="2351.2288" y1="2801.0867" x2="1310.5905" y2="2020.0741" gradientTransform="matrix(1 0 0 1 1155.6636 -215.3359)">
				<stop  offset="0" style="stop-color:#FFFFFF"/>
				<stop  offset="1" style="stop-color:#000000"/>
			</linearGradient>
			
				<rect x="2462.326" y="1680.472" style="fill:url(#SVGID_00000181048972087212573000000003128274056081830075_);" width="433.657" height="568.102"/>
		</g>
	</mask>
	
		<path style="mask:url(#SVGID_00000046337016228634249070000012375279588333055388_);fill-rule:evenodd;clip-rule:evenodd;fill:#FFCF4B;" d="
		M2462.326,1773.856l244.404,474.718l111.224-95.597l76.751-65.96l-210.177-233.159c99.918-30.646,171.138-91.007,211.461-173.387
		C2779.85,1886.765,2462.326,1773.856,2462.326,1773.856"/>
	<defs>
		
			<filter id="Adobe_OpacityMaskFilter_00000150810334440205142950000007429953994728667307_" filterUnits="userSpaceOnUse" x="2381.771" y="1227.021" width="463.427" height="551.294">
			<feColorMatrix  type="matrix" values="1 0 0 0 0  0 1 0 0 0  0 0 1 0 0  0 0 0 1 0"/>
		</filter>
	</defs>
	
		<mask maskUnits="userSpaceOnUse" x="2381.771" y="1227.021" width="463.427" height="551.294" id="SVGID_00000144333060959595523790000001119440980708788412_">
		<g style="filter:url(#Adobe_OpacityMaskFilter_00000150810334440205142950000007429953994728667307_);">
			
				<linearGradient id="SVGID_00000155116952020364017850000014573336627102589330_" gradientUnits="userSpaceOnUse" x1="1995.3004" y1="1674.0325" x2="1400.6632" y2="1808.5656" gradientTransform="matrix(1 0 0 1 1142.8623 -290.0703)">
				<stop  offset="0" style="stop-color:#FFFFFF"/>
				<stop  offset="1" style="stop-color:#000000"/>
			</linearGradient>
			
				<rect x="2381.771" y="1227.021" style="fill:url(#SVGID_00000155116952020364017850000014573336627102589330_);" width="463.43" height="551.291"/>
		</g>
	</mask>
	
		<path style="mask:url(#SVGID_00000144333060959595523790000001119440980708788412_);fill-rule:evenodd;clip-rule:evenodd;fill:#FDE3A7;" d="
		M2649.195,1260.315c320.693,98.19,173.872,510.942-124.43,517.91c308.515,7.153,465.905-418.055,139.768-517.91
		c-86.952-26.62-192.092-33.712-282.762-33.275C2468.803,1227.458,2567.104,1235.183,2649.195,1260.315"/>
	<defs>
		
			<filter id="Adobe_OpacityMaskFilter_00000022552154020852111280000004047414432530215600_" filterUnits="userSpaceOnUse" x="1467.713" y="1114.514" width="529.755" height="569.676">
			<feColorMatrix  type="matrix" values="1 0 0 0 0  0 1 0 0 0  0 0 1 0 0  0 0 0 1 0"/>
		</filter>
	</defs>
	
		<mask maskUnits="userSpaceOnUse" x="1467.713" y="1114.514" width="529.755" height="569.676" id="SVGID_00000075123668440059278260000016562693645601229737_">
		<g style="filter:url(#Adobe_OpacityMaskFilter_00000022552154020852111280000004047414432530215600_);">
			
				<linearGradient id="SVGID_00000092418491905167525480000012470149037989146513_" gradientUnits="userSpaceOnUse" x1="2076.9167" y1="895.9323" x2="337.8732" y2="1943.6246" gradientTransform="matrix(1 0 0 1 997.5995 -305.0283)">
				<stop  offset="0" style="stop-color:#FFFFFF"/>
				<stop  offset="1" style="stop-color:#000000"/>
			</linearGradient>
			
				<rect x="1467.713" y="1114.514" style="fill:url(#SVGID_00000092418491905167525480000012470149037989146513_);" width="529.755" height="569.676"/>
		</g>
	</mask>
	
		<path style="mask:url(#SVGID_00000075123668440059278260000016562693645601229737_);fill-rule:evenodd;clip-rule:evenodd;fill:#5EFAF7;" d="
		M1971.917,1533.152l-1.598,121.535l-502.606,29.502h529.755V1519.78v-405.267c-6.683,0.03-13.365,0.067-20.054,0.098
		L1971.917,1533.152z"/>
	<defs>
		
			<filter id="Adobe_OpacityMaskFilter_00000021831691404074632400000004931048210112553641_" filterUnits="userSpaceOnUse" x="1135.036" y="1889.475" width="991.688" height="359.1">
			<feColorMatrix  type="matrix" values="1 0 0 0 0  0 1 0 0 0  0 0 1 0 0  0 0 0 1 0"/>
		</filter>
	</defs>
	
		<mask maskUnits="userSpaceOnUse" x="1135.036" y="1889.475" width="991.688" height="359.1" id="SVGID_00000135660831600147546900000016851595007842586037_">
		<g style="filter:url(#Adobe_OpacityMaskFilter_00000021831691404074632400000004931048210112553641_);">
			
				<linearGradient id="SVGID_00000062155278723815336210000016004404025692471724_" gradientUnits="userSpaceOnUse" x1="267.5529" y1="3164.0603" x2="879.8108" y2="1877.3733" gradientTransform="matrix(1 0 0 1 944.7305 -215.3359)">
				<stop  offset="0" style="stop-color:#FFFFFF"/>
				<stop  offset="1" style="stop-color:#000000"/>
			</linearGradient>
			
				<rect x="1135.036" y="1889.475" style="fill:url(#SVGID_00000062155278723815336210000016004404025692471724_);" width="991.688" height="359.1"/>
		</g>
	</mask>
	
		<path style="mask:url(#SVGID_00000135660831600147546900000016851595007842586037_);fill-rule:evenodd;clip-rule:evenodd;fill:#003780;" d="
		M1869.815,2122.94v125.634h256.909v-189.203C2032.498,2087.927,1947.135,2108.678,1869.815,2122.94 M1393.491,2119.635
		c-225.981-67.589-258.455-230.16-258.455-230.16v359.1h258.455V2119.635z"/>
	<path style="fill:#332C2B;" d="M1837.49,2838.068v-235.279h-44.094v99.297H1677.61v-99.297h-44.432v235.279h44.432v-94.922h115.786
		v94.922H1837.49z M1590.094,2631.738c-24.233-23.904-55.874-36.016-87.514-36.016c-83.139,0-124.541,61.26-124.541,127.569
		c0,61.93,36.016,120.159,124.541,120.159c41.401,0,70.686-15.817,93.91-42.406v-99.297h-100.978v39.715h60.249v41.743
		c-18.512,14.81-34.67,18.847-53.182,18.847c-58.568,0-81.12-40.053-81.12-78.761c0-48.471,30.63-86.841,81.12-86.841
		c20.533,0,44.093,8.413,59.913,23.561L1590.094,2631.738z M1345.727,2838.068v-235.955h-44.094v235.955H1345.727z
		 M1259.559,2838.068v-235.279h-44.094v99.297h-115.79v-99.297h-44.431v235.279h44.431v-94.922h115.79v94.922H1259.559z"/>
	<path style="fill:#332C2B;" d="M2865.854,2619.282h144.739v-17.169h-162.578v235.955h166.615v-17.501h-148.776v-92.899h138.004
		v-16.5h-138.004V2619.282z M2796.183,2634.43c-23.897-23.56-55.2-35.346-86.165-35.346c-71.699,0-121.849,48.134-121.511,121.849
		c0,64.289,41.399,120.165,121.511,120.165c35.002,0,64.289-13.464,88.856-38.037v-88.187h-99.29v15.817h82.121v65.979
		c-20.192,18.508-46.443,27.259-71.688,27.259c-68.663,0-104.01-47.796-104.01-103.334c-0.338-54.524,35.002-105.018,104.01-105.018
		c26.59,0,55.201,10.103,75.731,30.295L2796.183,2634.43z M2363.656,2602.113v235.955h18.177v-194.833l158.872,194.833h7.073
		v-235.955h-17.845v195.171l-158.534-195.171H2363.656z M2153.959,2763.346l63.281-143.67l63.281,143.67H2153.959z
		 M2333.023,2838.068l-105.688-235.955h-19.86l-105.688,235.955h19.517l25.588-57.892h140.695l25.92,57.892H2333.023z
		 M1926.085,2618.944h85.495c39.045,0,57.892,28.667,57.554,56.381c-0.332,33.097-18.509,56.38-59.575,56.38h-83.474V2618.944z
		 M2012.588,2747.86c51.501,0,76.745-33.718,76.406-72.197c-0.331-36.803-26.251-73.55-77.414-73.55c-34.67,0-69.002,0-103.672,0
		v235.955h18.177v-89.194h64.289l81.451,89.194h23.904L2012.588,2747.86z"/>
	<path style="fill:#332C2B;" d="M2853.811,2913.338l-31.732-40.213h-9.894v64.854h12.204v-43.728l34.049,43.728h7.589v-64.854
		h-12.216V2913.338z M2718.216,2914.389h-24.052l12.025-27.634L2718.216,2914.389z M2728.576,2937.979h13.322l-29.048-64.854
		h-13.322l-29.047,64.854h13.229l5.55-12.21h33.858L2728.576,2937.979z M2601.59,2881.268c-6.661-6.569-15.356-9.899-24.052-9.899
		c-22.853,0-34.233,16.837-34.233,35.063c0,17.022,9.906,33.029,34.233,33.029c11.375,0,19.425-4.351,25.81-11.656v-27.296h-27.757
		v10.919h16.566v11.473c-5.088,4.068-9.53,5.181-14.619,5.181c-16.1,0-22.3-11.012-22.3-21.649c0-13.322,8.425-23.866,22.3-23.866
		c5.642,0,12.118,2.31,16.469,6.477L2601.59,2881.268z M2439.909,2883.024c15.265,0,21.373,12.211,21.188,23.13
		c-0.185,10.638-5.924,22.11-21.188,22.11c-15.264,0-21.003-11.381-21.279-22.018
		C2418.353,2895.327,2424.646,2883.024,2439.909,2883.024z M2439.909,2871.927c-22.386,0-33.306,17.114-33.306,34.136
		s10.545,33.397,33.306,33.397c22.762,0,33.029-16.745,33.214-33.49C2473.308,2889.041,2462.203,2871.927,2439.909,2871.927z
		 M2293.487,2873.125v64.854h45.521v-11.288h-33.306v-53.566H2293.487z M2218.217,2883.854
		c-4.897-9.985-15.355-12.855-25.439-12.855c-11.934,0.093-25.065,5.549-25.065,18.871c0,14.527,12.204,18.042,25.44,19.615
		c8.603,0.922,14.981,3.423,14.981,9.524c0,7.036-7.215,9.715-14.896,9.715c-7.859,0-15.351-3.146-18.227-10.268l-10.176,5.272
		c4.817,11.841,14.994,15.915,28.218,15.915c14.435,0,27.197-6.2,27.197-20.635c0-15.448-12.578-18.963-26.085-20.629
		c-7.773-0.922-14.435-2.494-14.435-8.142c0-4.812,4.351-8.604,13.421-8.604c7.029,0,13.132,3.516,15.35,7.215L2218.217,2883.854z
		 M2076.612,2925.947h-36.359v-14.612h35.063v-11.381h-35.063v-14.987h36.359v-11.842h-48.478c0,21.618,0,43.298,0,64.854h48.478
		V2925.947z M1940.836,2937.979h12.213v-64.67h-13.97l-20.261,27.8l-20.26-27.8h-14.063v64.67h12.213v-47.016l20.629,28.175h2.405
		l21.093-28.082V2937.979z M1778.415,2883.024c15.265,0,21.369,12.211,21.185,23.13c-0.184,10.638-5.92,22.11-21.185,22.11
		c-15.264,0-21-11.381-21.28-22.018C1756.858,2895.327,1763.151,2883.024,1778.415,2883.024z M1778.415,2871.927
		c-22.389,0-33.306,17.114-33.306,34.136s10.548,33.397,33.306,33.397s33.029-16.745,33.211-33.49
		C1811.813,2889.041,1800.709,2871.927,1778.415,2871.927z M1672.703,2883.854c-4.9-9.985-15.356-12.855-25.44-12.855
		c-11.934,0.093-25.068,5.549-25.068,18.871c0,14.527,12.21,18.042,25.44,19.615c8.604,0.922,14.984,3.423,14.984,9.524
		c0,7.036-7.214,9.715-14.893,9.715c-7.865,0-15.355-3.146-18.226-10.268l-10.176,5.272c4.812,11.841,14.987,15.915,28.215,15.915
		c14.435,0,27.2-6.2,27.2-20.635c0-15.448-12.582-18.963-26.089-20.629c-7.77-0.922-14.434-2.494-14.434-8.142
		c0-4.812,4.351-8.604,13.417-8.604c7.03,0,13.135,3.516,15.356,7.215L1672.703,2883.854z M1547.844,2925.947h-36.357v-14.612
		h35.063v-11.381h-35.063v-14.987h36.357v-11.842h-48.475c0,21.618,0,43.298,0,64.854h48.475V2925.947z M1428.256,2873.125h-13.69
		l-14.801,46.782l-16.191-46.782h-7.955l-15.728,46.782l-15.265-46.782h-13.694l23.778,64.854h10.36l7.862-20.198l6.757-20.66
		l6.846,20.476l8.047,20.383h10.363L1428.256,2873.125z M1251.588,2914.389h-24.051l12.025-27.634L1251.588,2914.389z
		 M1261.951,2937.979h13.323l-29.051-64.854h-13.322l-29.048,64.854h13.228l5.552-12.21h33.859L1261.951,2937.979z"/>
</g>
</svg>
