<?xml version="1.0" standalone="no"?>
<!DOCTYPE svg PUBLIC "-//W3C//DTD SVG 20010904//EN"
 "http://www.w3.org/TR/2001/REC-SVG-20010904/DTD/svg10.dtd">
<svg version="1.0" xmlns="http://www.w3.org/2000/svg"
 width="1838.000000pt" height="1379.000000pt" viewBox="0 0 1838.000000 1379.000000"
 preserveAspectRatio="xMidYMid meet">

<g transform="translate(0.000000,1379.000000) scale(0.100000,-0.100000)"
fill="#000000" stroke="none">
<path d="M11690 11355 c-58 -7 -141 -20 -185 -29 -73 -16 -109 -25 -215 -58
-79 -24 -266 -102 -330 -139 -38 -21 -72 -39 -75 -39 -3 0 -11 -5 -18 -10 -7
-6 -53 -39 -102 -74 -246 -173 -436 -403 -585 -706 -15 -30 -31 -66 -35 -80
-4 -14 -11 -29 -15 -35 -13 -18 -87 -249 -109 -340 -23 -99 -46 -236 -57 -332
l-7 -63 1604 0 c911 0 1645 -5 1699 -10 349 -34 643 -185 824 -424 94 -124
165 -275 201 -431 34 -147 37 -440 5 -578 -50 -213 -145 -397 -275 -529 -61
-62 -176 -158 -189 -158 -4 0 -24 -11 -44 -25 -48 -32 -189 -91 -263 -110
-199 -52 -129 -49 -1369 -55 l-1155 -5 0 -935 0 -935 540 -3 540 -3 55 -66
c30 -37 78 -92 105 -123 28 -31 73 -82 100 -115 28 -32 55 -64 62 -71 7 -6 44
-49 83 -94 39 -45 77 -89 85 -96 8 -8 31 -36 52 -62 21 -26 43 -51 49 -57 6
-5 42 -46 79 -90 38 -44 91 -105 119 -136 28 -31 85 -95 126 -143 41 -49 84
-98 95 -110 11 -13 45 -51 75 -86 74 -86 216 -248 249 -285 15 -16 58 -66 96
-110 38 -44 71 -82 74 -85 4 -3 26 -30 51 -60 25 -30 68 -79 96 -110 28 -30
80 -89 115 -130 35 -41 71 -82 79 -91 8 -9 38 -42 66 -75 28 -32 105 -120 170
-195 66 -75 173 -198 238 -273 65 -75 123 -139 127 -142 8 -5 -42 104 -78 169
-8 16 -13 37 -10 48 3 10 1 17 -3 14 -4 -3 -6 4 -3 16 3 11 12 23 19 26 8 3
14 11 14 19 0 8 6 14 14 14 8 0 18 9 21 20 4 11 20 27 36 35 17 9 29 24 29 36
0 11 9 23 19 27 18 7 121 141 134 175 3 9 13 17 21 17 9 0 20 9 26 19 5 11 19
23 30 26 12 4 23 18 26 34 3 15 19 39 36 52 66 54 85 75 92 101 3 16 13 28 21
28 8 0 21 14 30 30 9 16 20 30 25 30 6 0 10 5 10 10 0 6 11 23 24 37 14 15 22
32 18 41 -3 10 -1 13 6 8 6 -3 13 -2 17 4 3 5 -3 10 -14 10 -19 0 -26 10 -22
33 0 4 -4 6 -11 5 -7 -2 -12 4 -13 12 0 14 -21 40 -115 140 -14 15 -64 69
-111 121 -98 106 -104 113 -243 264 -106 115 -234 252 -276 296 -14 15 -65 71
-115 125 -49 53 -97 104 -106 113 -27 27 -490 532 -513 559 -11 14 -41 46 -65
71 -25 24 -38 42 -30 39 9 -4 20 2 27 13 10 16 9 19 -5 19 -9 0 -14 3 -10 6 3
4 13 4 22 0 14 -5 14 -8 -1 -31 -14 -22 -14 -25 -1 -25 8 0 17 -9 20 -20 3
-11 11 -20 17 -20 10 0 10 3 0 15 -10 12 -10 15 3 15 8 0 18 7 21 16 3 9 12
14 20 11 8 -3 28 12 49 36 81 96 108 131 119 150 6 12 15 26 19 31 5 6 25 31
45 56 20 25 49 63 63 85 14 22 34 46 43 53 10 7 18 18 18 23 0 10 56 84 90
119 8 8 24 28 36 44 20 28 24 29 140 37 203 13 356 29 419 44 33 8 80 17 105
20 25 4 74 15 110 25 154 45 217 65 240 77 14 7 30 13 37 13 6 0 24 7 40 15
15 8 44 21 63 29 30 13 81 40 185 100 158 91 288 201 451 383 17 19 38 46 45
61 8 15 22 33 32 40 9 7 17 17 17 23 0 5 12 27 26 49 15 22 24 46 20 55 -3 9
-2 13 4 10 5 -3 20 13 32 36 13 23 29 51 35 63 7 11 13 29 13 39 0 9 5 17 11
17 5 0 8 4 4 9 -3 5 -1 12 5 16 5 3 10 15 10 26 0 11 6 27 14 34 7 8 16 32 20
54 3 22 12 46 19 53 7 7 18 33 24 58 6 25 15 59 21 75 48 143 71 253 118 570
13 85 16 186 16 440 0 348 3 316 -53 620 -27 148 -31 163 -86 340 -14 44 -31
94 -39 112 -8 17 -14 35 -14 41 0 25 -117 275 -184 392 -14 25 -29 52 -32 60
-14 30 -159 242 -216 315 -61 78 -328 354 -403 415 -48 40 -186 143 -230 171
-161 105 -208 132 -355 204 -52 25 -102 50 -110 54 -50 27 -291 116 -405 149
-272 80 -474 118 -788 147 -217 20 -1559 20 -1727 0z m2632 -1196 c9 -5 24 -9
33 -9 35 0 322 -131 415 -188 70 -44 191 -123 205 -134 174 -138 330 -311 432
-477 33 -55 98 -190 123 -256 12 -33 28 -76 36 -95 45 -119 79 -360 78 -550
-1 -235 -35 -433 -117 -675 -11 -33 -28 -78 -38 -101 -11 -22 -19 -44 -19 -48
0 -27 -169 -335 -233 -426 -182 -256 -354 -429 -659 -660 -14 -11 -29 -20 -33
-20 -4 0 -30 -15 -58 -33 -74 -46 -246 -137 -261 -137 -14 0 -4 41 12 47 9 4
31 16 47 27 17 12 39 26 50 33 11 7 40 24 65 39 66 40 272 207 369 299 143
136 288 313 387 473 69 111 82 135 124 222 95 195 134 298 169 445 11 44 27
109 36 145 8 36 21 138 27 227 22 301 -13 558 -110 808 -48 124 -178 346 -244
417 -15 17 -28 32 -28 35 0 3 -41 47 -91 97 -84 86 -160 151 -234 202 -16 11
-54 37 -84 58 -50 35 -200 120 -261 147 -41 19 -102 46 -150 66 -98 42 -99 44
-50 37 25 -4 53 -10 62 -15z m-732 -4799 c0 -5 -4 -10 -10 -10 -5 0 -10 5 -10
10 0 6 5 10 10 10 6 0 10 -4 10 -10z m1450 -1884 c0 -3 -4 -8 -10 -11 -5 -3
-10 -1 -10 4 0 6 5 11 10 11 6 0 10 -2 10 -4z m-114 -191 c-10 -28 -26 -15
-26 22 0 37 0 37 16 15 9 -13 13 -29 10 -37z m-86 -75 c0 -5 -5 -10 -11 -10
-5 0 -7 5 -4 10 3 6 8 10 11 10 2 0 4 -4 4 -10z m-254 -307 c-10 -10 -19 5
-10 18 6 11 8 11 12 0 2 -7 1 -15 -2 -18z m-176 -173 c0 -5 -4 -10 -10 -10 -5
0 -10 5 -10 10 0 6 5 10 10 10 6 0 10 -4 10 -10z"/>
<path d="M2143 9477 c-2 -12 -6 -1609 -9 -3549 l-6 -3528 1016 0 1016 0 0
1717 c0 944 1 1717 2 1718 2 1 850 5 1885 9 1525 5 1883 4 1890 -6 4 -7 6
-784 4 -1726 l-3 -1712 1006 2 1006 3 -1 1325 c-1 729 -3 1348 -4 1375 -1 28
-4 172 -5 320 -3 245 -14 452 -19 340 -1 -24 -4 -35 -9 -27 -5 7 -38 27 -75
46 -36 19 -76 41 -89 50 -12 9 -31 16 -41 16 -9 0 -20 7 -23 15 -4 8 -16 15
-28 15 -11 0 -32 9 -46 20 -14 11 -33 20 -42 20 -10 0 -18 5 -18 10 0 6 -7 10
-15 10 -15 0 -82 34 -99 51 -6 5 -18 9 -27 9 -9 0 -22 6 -28 14 -7 8 -26 18
-42 21 -17 4 -33 13 -36 21 -3 8 -15 14 -27 14 -11 0 -32 9 -46 20 -14 11 -33
20 -42 20 -10 0 -18 5 -18 10 0 6 -7 10 -15 10 -14 0 -53 18 -65 30 -13 13
-51 30 -67 30 -10 0 -26 7 -36 15 -11 7 -25 11 -32 9 -7 -3 -16 4 -20 15 -4
13 -18 23 -41 27 -19 3 -34 11 -34 16 0 6 -9 8 -20 5 -13 -3 -24 1 -30 13 -5
10 -23 21 -40 25 -16 4 -32 11 -35 16 -4 5 -17 9 -30 9 -12 0 -25 6 -28 14 -3
8 -20 17 -37 21 -17 4 -34 13 -37 21 -3 9 -13 12 -23 9 -13 -4 -20 1 -25 14
-4 13 -18 23 -41 27 -19 3 -34 11 -34 16 0 5 -9 7 -19 3 -14 -4 -23 0 -31 15
-6 11 -16 20 -23 20 -7 0 -25 7 -40 15 -15 8 -34 12 -42 9 -7 -3 -18 3 -24 14
-6 11 -25 23 -42 27 -17 4 -33 13 -36 21 -3 9 -13 12 -23 9 -13 -4 -20 1 -25
14 -4 13 -18 23 -41 27 -19 3 -34 11 -34 16 0 5 -9 7 -19 3 -14 -4 -23 0 -31
15 -6 11 -16 20 -23 20 -7 0 -25 7 -40 15 -15 8 -34 11 -43 8 -10 -4 -17 2
-21 15 -3 13 -16 22 -39 27 -19 3 -38 13 -41 21 -3 9 -13 12 -23 9 -13 -4 -20
0 -25 14 -7 24 -44 31 -154 30 -46 0 -87 4 -90 9 -6 10 -1022 22 -1855 22
-247 0 -447 3 -443 6 3 3 48 10 99 14 225 20 308 33 308 46 0 8 -9 14 -20 14
-11 0 -23 6 -26 14 -6 15 -40 29 -61 27 -7 -1 -13 5 -13 13 0 8 -13 17 -29 21
-16 3 -35 13 -42 21 -8 10 -35 14 -100 14 -52 0 -91 4 -95 11 -3 6 -14 9 -24
6 -9 -2 -24 0 -33 5 -10 5 -57 3 -124 -6 -151 -21 -272 -35 -383 -46 -52 -5
-146 -16 -209 -24 -173 -24 -234 -23 -268 4 -82 64 -139 93 -198 99 -57 7
-135 41 -177 79 -11 9 -18 11 -18 4 0 -17 -30 -15 -36 3 -4 8 -12 15 -20 15
-8 0 -14 5 -14 10 0 6 -6 10 -14 10 -8 0 -16 5 -18 11 -2 7 -41 13 -106 14
-55 2 -107 7 -114 11 -7 5 -101 11 -208 14 l-195 5 -11 125 c-6 69 -14 269
-17 446 l-5 321 -25 26 c-13 15 -31 27 -40 27 -9 0 -18 4 -22 9 -7 13 -93 71
-104 71 -4 0 -16 9 -26 20 -10 11 -22 20 -28 20 -5 0 -29 14 -54 30 -24 17
-46 30 -49 30 -3 0 -20 11 -38 25 -18 14 -37 25 -43 25 -5 0 -18 9 -28 20 -11
12 -33 27 -49 35 -54 26 -82 58 -104 120 -38 106 -72 199 -81 220 -15 33 -41
104 -68 185 -24 72 -57 163 -74 205 -12 29 -54 142 -74 200 -21 61 -29 71 -32
42z m3447 -2537 c0 -5 -10 -10 -22 -10 -19 0 -20 2 -8 10 19 13 30 13 30 0z"/>
<path d="M5674 6928 c-10 -16 4 -22 28 -11 l22 10 -22 5 c-12 4 -25 2 -28 -4z"/>
<path d="M13559 5223 c-13 -16 -12 -17 4 -4 9 7 17 15 17 17 0 8 -8 3 -21 -13z"/>
</g>
</svg>
